<?xml version="1.0" encoding="UTF-8" standalone="no"?>
<svg xmlns="http://www.w3.org/2000/svg" xmlns:xlink="http://www.w3.org/1999/xlink" width="69.791mm" height="74.865mm" viewBox="551.104370 -252.432465 69.791199 74.864929">
    <path transform="matrix(1,0,0,-1,0,0)" style="stroke:none;fill:#000000;fill-rule:evenodd" d="M582.724243,252.201309C576.79834,250.845764,572.132263,246.221924,570.826172,240.411072L570.459106,238.777893L565.68988,238.692368C561.195496,238.611755,560.83844,238.575592,559.493591,238.064758C555.353821,236.492279,552.429749,233.317719,551.392761,229.269928C551.104614,228.14502,551.070862,225.861572,551.127258,211.291992L551.191895,194.602631L551.678955,192.915466C553.90094,185.218277,559.951477,179.569351,567.69458,177.96283C569.459229,177.596695,570.809631,177.567535,586.005371,177.567535C601.20105,177.567535,602.551453,177.596695,604.316101,177.96283C612.095032,179.576782,618.055542,185.203247,620.374146,193.120819C620.792358,194.549103,620.810547,195.20224,620.878113,211.203644C620.926208,222.60144,620.875977,228.152222,620.717957,228.913544C620.338562,230.740982,618.997986,233.237762,617.591248,234.736969C616.166565,236.255264,614.632935,237.261063,612.51709,238.064758C611.171448,238.575897,610.816589,238.611725,606.297852,238.692688L601.505615,238.778519L601.250244,240.076782C600.65741,243.090027,598.860107,246.257507,596.544067,248.370605C594.748901,250.008514,593.231201,250.910553,590.929382,251.707855C589.347534,252.255768,588.701172,252.360657,586.534546,252.421051C584.892517,252.466827,583.545227,252.38913,582.724243,252.201309zM588.916748,249.216507C593.061768,248.239197,596.672119,244.8797,597.970276,240.791946C598.258728,239.883636,598.494751,239.050125,598.494751,238.939697C598.494751,238.815414,593.731079,238.738953,585.988525,238.738953L573.4823,238.738953L573.627747,239.426926C573.707764,239.805313,573.952332,240.632355,574.171326,241.264801C575.452271,244.964874,579.121948,248.266968,582.996948,249.206467C584.606934,249.596802,587.284485,249.601349,588.916748,249.216507zM610.875061,235.449783C612.583069,235.004913,614.097046,234.095078,615.371277,232.747742C616.575073,231.47493,617.137695,230.485138,617.64032,228.756287C617.947876,227.698181,617.977783,225.828842,617.919189,211.298645C617.845825,193.082993,617.937744,194.22345,616.257141,190.686447C614.044922,186.030762,609.941772,182.568832,604.905762,181.109116L603.25769,180.631409L586.005371,180.631409L568.752991,180.631409L567.077454,181.116653C561.239136,182.807465,556.867615,186.984055,554.84552,192.803299L554.146729,194.814301L554.146729,211.749115L554.146729,228.683899L554.827332,230.120743C556.056335,232.715424,558.414856,234.732086,561.048645,235.440369C562.817444,235.916016,609.051514,235.924774,610.875061,235.449783zM570.472595,224.820648C571.157959,219.257568,574.190552,214.738602,578.817139,212.386292C581.397644,211.07428,583.038147,210.689514,586.005371,210.700348C589.075562,210.711563,590.530396,211.046753,593.006775,212.313446C597.847168,214.789383,601.044128,219.490479,601.518066,224.829315L601.608093,225.84346L600.10437,225.781891L598.600586,225.720322L598.459595,224.450211C598.162964,221.777451,596.584778,218.791229,594.446167,216.855896C588.682983,211.640533,579.70166,212.811157,575.420593,219.335724C574.538574,220.679977,573.51593,223.479385,573.51593,224.549667C573.51593,225.72496,573.380188,225.826172,571.803833,225.826172L570.348755,225.826172L570.472595,224.820648z"/>
</svg>
